<?xml version="1.0" encoding="UTF-8"?>
<svg id="svg46" width="86px" height="86px" enable-background="new 0 0 86 86" version="1.1" viewBox="0 0 86 86" xml:space="preserve" xmlns="http://www.w3.org/2000/svg" xmlns:cc="http://creativecommons.org/ns#" xmlns:dc="http://purl.org/dc/elements/1.1/" xmlns:rdf="http://www.w3.org/1999/02/22-rdf-syntax-ns#"><metadata id="metadata52"><rdf:RDF><cc:Work rdf:about=""><dc:format>image/svg+xml</dc:format><dc:type rdf:resource="http://purl.org/dc/dcmitype/StillImage"/><dc:title/><cc:license rdf:resource="http://creativecommons.org/licenses/by-sa/4.0/"/><dc:creator><cc:Agent><dc:title>Mirian Margiani</dc:title></cc:Agent></dc:creator><dc:description>Based on icon-launcher-notes.svg by Jolla available from https://sailfishos.org/design/icons/. Original license: Creative Commons version 3.0 (CC BY 3.0)</dc:description></cc:Work><cc:License rdf:about="http://creativecommons.org/licenses/by-sa/4.0/"><cc:permits rdf:resource="http://creativecommons.org/ns#Reproduction"/><cc:permits rdf:resource="http://creativecommons.org/ns#Distribution"/><cc:requires rdf:resource="http://creativecommons.org/ns#Notice"/><cc:requires rdf:resource="http://creativecommons.org/ns#Attribution"/><cc:permits rdf:resource="http://creativecommons.org/ns#DerivativeWorks"/><cc:requires rdf:resource="http://creativecommons.org/ns#ShareAlike"/></cc:License></rdf:RDF></metadata><defs id="defs50"><linearGradient id="SVGID_1_" x1="12.785" x2="85.179" y1="73.152" y2=".7578" gradientTransform="rotate(180 43 43)" gradientUnits="userSpaceOnUse">
		<stop id="stop13" stop-color="#F5E7B8" offset="0"/>
		<stop id="stop15" stop-color="#E6D695" offset=".9951"/>
	</linearGradient><linearGradient id="SVGID_2_" x1="18.245" x2="67.658" y1="32.649" y2="-16.764" gradientTransform="rotate(180 43 43)" gradientUnits="userSpaceOnUse">
			<stop id="stop20" stop-color="#00A89A" offset="0"/>
			<stop id="stop22" stop-color="#00CFBD" offset="1"/>
		</linearGradient></defs>

<path id="path18" d="m0.397 84.23c0 0.785 0.637 1.422 1.422 1.422h82.459c0.785-1e-3 1.422-0.637 1.422-1.422v-41.23c0-23.556-19.096-42.651-42.651-42.651h-41.23c-0.785 0-1.422 0.696-1.422 1.481z" fill="url(#SVGID_1_)"/><path id="path25" d="m1.819 85.651h82.459c0.785 0 1.422-0.636 1.422-1.421v-12.933h-85.303v12.933c0 0.785 0.637 1.421 1.422 1.421z" fill="url(#SVGID_2_)"/><rect id="rect29" transform="scale(-1)" x="-75.243" y="-22.887" width="64.298" height="1.943" opacity=".1" stroke-width=".92112"/><rect id="rect31" transform="scale(-1)" x="-75.243" y="-32.379" width="64.298" height="1.943" opacity=".1" stroke-width=".92112"/><path id="path33" d="m71.225 10.997h-60.28v1.943h61.666c0.29741-0.64732-0.754-1.3146-1.3865-1.943z" opacity=".1" stroke-width=".93905"/><rect id="rect35" transform="scale(-1)" x="-75.243" y="-41.799" width="64.298" height="1.943" opacity=".1" stroke-width=".92112"/><rect id="rect37" transform="scale(-1)" x="-75.243" y="-61.46" width="64.298" height="1.943" opacity=".1" stroke-width=".92112"/><rect id="rect39" transform="scale(-1)" x="-75.243" y="-51.144" width="64.298" height="1.943" opacity=".1" stroke-width=".92112"/>
<path id="path948" d="m5.8297 69.647q0-0.81039 1.1844-1.4338 1.2156-0.65455 1.9325-0.65455 0.46754 0 0.71689 0.62338l0.9039 2.213q0.31169 0.77922 0.62338 0.77922 0.24935 0 0.77922-0.93507 2.6182-4.426 5.4857-8.478 2.8675-4.0831 4.6753-5.7039 0.77922-0.71689 2.1818-1.0909 1.4026-0.4052 2.8052-0.4052h0.12468v0.4987q-3.4909 3.7091-8.0728 10.099-4.5818 6.3896-7.1065 11.065-0.24935 0.46754-0.68572 0.59221-0.43636 0.15584-1.5896 0.15584-0.96624 0-1.2468-0.09351t-0.46754-0.46754q-0.87273-1.7143-1.5584-3.7403-0.68572-2.0572-0.68572-3.0234z" fill="#6f7175" fill-opacity=".50196"/><path id="path945" d="m5.8297 37.647q0-0.81039 1.1844-1.4338 1.2156-0.65455 1.9325-0.65455 0.46754 0 0.71689 0.62338l0.9039 2.213q0.31169 0.77922 0.62338 0.77922 0.24935 0 0.77922-0.93507 2.6182-4.426 5.4857-8.478 2.8675-4.0831 4.6753-5.7039 0.77922-0.71689 2.1818-1.0909 1.4026-0.4052 2.8052-0.4052h0.12468v0.4987q-3.4909 3.7091-8.0728 10.099-4.5818 6.3896-7.1065 11.065-0.24935 0.46754-0.68572 0.59221-0.43636 0.15584-1.5896 0.15584-0.96624 0-1.2468-0.09351t-0.46754-0.46754q-0.87273-1.7143-1.5584-3.7403-0.68572-2.0572-0.68572-3.0234z" fill="#6f7175" fill-opacity=".50196"/><path id="path942" d="m23.35 7.1239q0.17272 0 0.44908 0.27636 0.29363 0.27636 0.60453 0.72544 0.5009-0.88089 0.79453-0.88089 0.25908 0 0.70817 0.46635 0.27636 0.29363 0.27636 0.65635 0 0.46635-0.37999 0.86362-3.5926 3.9036-6.978 8.5844 1.3991 3.4199 3.869 7.548 0.20727 0.34545 0.20727 0.55272 0 0.39726-0.51817 0.82907l-0.55272 0.37999q0.06909 0.20727 0.06909 0.55272 0 0.51817-0.37999 0.79453-0.44908 0.3109-0.65635 0.3109-0.44908 0-0.79453-0.44908-2.0727-2.6599-4.2835-6.2526-2.9708 3.869-6.8053 10.329-0.55272 0.93271-1.8654 0.93271-0.6218 0-0.69089-0.72544-0.88089-0.48363-0.88089-1.5372 0-1.3818 0.19-1.9172 0.086362-0.24181 0.55272-0.96725 3.5236-5.4926 7.4617-10.087-2.1072-5.009-2.7981-7.7207-0.15545-0.60453-0.15545-0.77726 0-0.24181 0.3109-0.69089 0.32818-0.44908 0.60453-0.44908 0.25909 0 0.65635 0.5009 0.15545-0.29363 0.37999-0.5009 0.3109-0.27636 0.79453-0.27636 0.55272 0 0.72544 0.51817 0.93271 2.9018 2.4527 5.5272 2.4527-3.1781 5.9762-6.7017 0.41454-0.41454 0.65635-0.41454z" fill="#9fa1a3" fill-opacity=".50196"/><path id="path939" d="m5.8297 53.238q0-0.81039 1.1844-1.4338 1.2156-0.65455 1.9325-0.65455 0.46754 0 0.71689 0.62338l0.9039 2.213q0.31169 0.77922 0.62338 0.77922 0.24935 0 0.77922-0.93507 2.6182-4.426 5.4857-8.478 2.8675-4.0831 4.6753-5.7039 0.77922-0.71689 2.1818-1.0909 1.4026-0.4052 2.8052-0.4052h0.12468v0.4987q-3.4909 3.7091-8.0728 10.099-4.5818 6.3896-7.1065 11.065-0.24935 0.46754-0.68572 0.59221-0.43636 0.15584-1.5896 0.15584-0.96624 0-1.2468-0.09351t-0.46754-0.46754q-0.87273-1.7143-1.5584-3.7403-0.68572-2.0572-0.68572-3.0234z" fill="#6f7175" fill-opacity=".50196"/></svg>
