<?xml version="1.0" encoding="UTF-8" standalone="no"?>
<!-- Generator: Adobe Illustrator 17.0.1, SVG Export Plug-In . SVG Version: 6.00 Build 0)  -->

<svg
   xmlns:dc="http://purl.org/dc/elements/1.1/"
   xmlns:cc="http://creativecommons.org/ns#"
   xmlns:rdf="http://www.w3.org/1999/02/22-rdf-syntax-ns#"
   xmlns:svg="http://www.w3.org/2000/svg"
   xmlns="http://www.w3.org/2000/svg"
   xmlns:sodipodi="http://sodipodi.sourceforge.net/DTD/sodipodi-0.dtd"
   xmlns:inkscape="http://www.inkscape.org/namespaces/inkscape"
   version="1.1"
   x="0px"
   y="0px"
   width="86px"
   height="86px"
   viewBox="0 0 86 86"
   enable-background="new 0 0 86 86"
   xml:space="preserve"
   id="svg46"
   sodipodi:docname="harbour-todolist.svg"
   inkscape:version="0.92.4 (5da689c313, 2019-01-14)"><metadata
   id="metadata52"><rdf:RDF><cc:Work
       rdf:about=""><dc:format>image/svg+xml</dc:format><dc:type
         rdf:resource="http://purl.org/dc/dcmitype/StillImage" /></cc:Work></rdf:RDF></metadata><defs
   id="defs50"><linearGradient
     y2="0.75779998"
     x2="85.179199"
     y1="73.151901"
     x1="12.7851"
     gradientUnits="userSpaceOnUse"
     id="SVGID_1_"
     gradientTransform="rotate(-180,43,43)">
		<stop
   id="stop13"
   style="stop-color:#F5E7B8"
   offset="0" />
		<stop
   id="stop15"
   style="stop-color:#E6D695"
   offset="0.9951" />
	</linearGradient><linearGradient
     id="SVGID_2_"
     gradientUnits="userSpaceOnUse"
     x1="18.245199"
     y1="32.648602"
     x2="67.6576"
     y2="-16.7638"
     gradientTransform="rotate(-180,43,43)">
			<stop
   offset="0"
   style="stop-color:#00A89A"
   id="stop20" />
			<stop
   offset="1"
   style="stop-color:#00CFBD"
   id="stop22" />
		</linearGradient></defs><sodipodi:namedview
   pagecolor="#ffffff"
   bordercolor="#666666"
   borderopacity="1"
   objecttolerance="10"
   gridtolerance="10"
   guidetolerance="10"
   inkscape:pageopacity="0"
   inkscape:pageshadow="2"
   inkscape:window-width="1920"
   inkscape:window-height="1009"
   id="namedview48"
   showgrid="false"
   inkscape:zoom="6.7421809"
   inkscape:cx="25.319105"
   inkscape:cy="42.478039"
   inkscape:window-x="0"
   inkscape:window-y="0"
   inkscape:window-maximized="1"
   inkscape:current-layer="svg46" />
<g
   id="Layer_2"
   display="none">
</g>
<path
   inkscape:connector-curvature="0"
   style="fill:url(#SVGID_1_)"
   id="path18"
   d="m 0.397,84.23 c 0,0.785 0.637,1.422 1.422,1.422 l 82.459,0 C 85.063,85.651 85.7,85.015 85.7,84.23 V 43 C 85.7,19.444 66.604,0.349 43.049,0.349 l -41.23,0 c -0.785,0 -1.422,0.696 -1.422,1.481 z" /><path
   d="m 1.819,85.651 h 82.459 c 0.785,0 1.422,-0.636 1.422,-1.421 V 71.297 H 0.397 V 84.23 c 0,0.785 0.637,1.421 1.422,1.421 z"
   id="path25"
   style="fill:url(#SVGID_2_)"
   inkscape:connector-curvature="0" /><rect
   x="-75.242973"
   y="-22.886713"
   width="64.297852"
   height="1.943"
   id="rect29"
   style="opacity:0.1;stroke-width:0.92111784"
   transform="scale(-1)" /><rect
   x="-75.242973"
   y="-32.379246"
   width="64.297852"
   height="1.943"
   id="rect31"
   style="opacity:0.1;stroke-width:0.92111784"
   transform="scale(-1)" /><path
   d="M 71.225011,10.99732 H 10.945122 v 1.943 h 61.66634 c 0.297414,-0.647315 -0.754001,-1.314587 -1.386451,-1.943 z"
   id="path33"
   inkscape:connector-curvature="0"
   style="opacity:0.1;stroke-width:0.93905121"
   sodipodi:nodetypes="ccccc" /><rect
   x="-75.242973"
   y="-41.798615"
   width="64.297852"
   height="1.943"
   id="rect35"
   style="opacity:0.1;stroke-width:0.92111784"
   transform="scale(-1)" /><rect
   x="-75.242973"
   y="-61.459999"
   width="64.297852"
   height="1.943"
   id="rect37"
   style="opacity:0.1;stroke-width:0.92111784"
   transform="scale(-1)" /><rect
   x="-75.242973"
   y="-51.143806"
   width="64.297852"
   height="1.943"
   id="rect39"
   style="opacity:0.1;stroke-width:0.92111784"
   transform="scale(-1)" />
<path
   inkscape:connector-curvature="0"
   id="path948"
   style="fill:#6f7175;fill-opacity:0.50196078;stroke:none;stroke-width:0.51948315px;stroke-linecap:butt;stroke-linejoin:miter;stroke-opacity:1"
   d="m 5.8296971,69.646992 q 0,-0.810393 1.1844216,-1.433773 1.2155903,-0.654549 1.9324773,-0.654549 0.467535,0 0.716887,0.62338 l 0.903901,2.212998 q 0.31169,0.779225 0.62338,0.779225 0.249351,0 0.779224,-0.93507 2.618196,-4.425997 5.485743,-8.477965 2.867547,-4.083138 4.675348,-5.703926 0.779225,-0.716887 2.18183,-1.090914 1.402604,-0.405197 2.805209,-0.405197 h 0.124676 v 0.498703 q -3.490927,3.70911 -8.072769,10.098754 -4.581841,6.389643 -7.10653,11.064991 -0.249352,0.467535 -0.685718,0.592211 -0.436365,0.155845 -1.589618,0.155845 -0.966239,0 -1.24676,-0.09351 Q 8.260878,76.784685 8.073864,76.41066 7.2011327,74.696369 6.5154149,72.670384 5.8296971,70.613231 5.8296971,69.646992 Z" /><path
   inkscape:connector-curvature="0"
   id="path945"
   style="fill:#6f7175;fill-opacity:0.50196078;stroke:none;stroke-width:0.51948315px;stroke-linecap:butt;stroke-linejoin:miter;stroke-opacity:1"
   d="m 5.8296971,37.646992 q 0,-0.810393 1.1844216,-1.433773 1.2155903,-0.654549 1.9324773,-0.654549 0.467535,0 0.716887,0.62338 l 0.903901,2.212998 q 0.31169,0.779225 0.62338,0.779225 0.249351,0 0.779224,-0.93507 2.618196,-4.425997 5.485743,-8.477965 2.867547,-4.083138 4.675348,-5.703926 0.779225,-0.716887 2.18183,-1.090914 1.402604,-0.405197 2.805209,-0.405197 h 0.124676 v 0.498703 q -3.490927,3.70911 -8.072769,10.098754 -4.581841,6.389643 -7.10653,11.064991 -0.249352,0.467535 -0.685718,0.592211 -0.436365,0.155845 -1.589618,0.155845 -0.966239,0 -1.24676,-0.09351 Q 8.260878,44.784685 8.073864,44.41066 7.2011327,42.696369 6.5154149,40.670384 5.8296971,38.613231 5.8296971,37.646992 Z" /><path
   inkscape:connector-curvature="0"
   id="path942"
   style="fill:#9fa1a3;fill-opacity:0.50196078;stroke:none;stroke-width:0.58956301px;stroke-linecap:butt;stroke-linejoin:miter;stroke-opacity:1"
   d="m 23.349564,7.1239 q 0.172723,0 0.449081,0.2763577 0.29363,0.2763577 0.604532,0.7254389 0.500899,-0.8808901 0.794529,-0.8808901 0.259085,0 0.708166,0.4663536 0.276358,0.29363 0.276358,0.6563495 0,0.4663536 -0.379992,0.8636177 -3.59265,3.9035527 -6.978031,8.5843607 1.39906,3.419926 3.869007,7.548019 0.207268,0.345447 0.207268,0.552715 0,0.397264 -0.51817,0.829073 l -0.552716,0.379992 q 0.06909,0.207268 0.06909,0.552715 0,0.518171 -0.379992,0.794529 -0.449081,0.310902 -0.65635,0.310902 -0.449081,0 -0.794528,-0.449081 -2.072682,-2.659943 -4.283544,-6.252593 -2.970845,3.869008 -6.805308,10.328869 -0.552715,0.932707 -1.8654141,0.932707 -0.6218048,0 -0.6908942,-0.725439 -0.8808901,-0.483626 -0.8808901,-1.53724 0,-1.381788 0.1899959,-1.917231 0.086362,-0.241813 0.5527153,-0.967252 3.5235602,-5.492609 7.4616572,-10.087055 -2.107227,-5.008983 -2.798121,-7.720743 -0.155451,-0.6045323 -0.155451,-0.7772559 0,-0.2418129 0.310902,-0.6908942 0.328175,-0.4490812 0.604532,-0.4490812 0.259086,0 0.65635,0.5008983 0.155451,-0.29363 0.379992,-0.5008983 0.310902,-0.2763577 0.794528,-0.2763577 0.552715,0 0.725439,0.5181707 0.932707,2.9017553 2.452674,5.5271533 2.452675,-3.178113 5.976235,-6.7016735 Q 23.107751,7.1239 23.349564,7.1239 Z" /><path
   inkscape:connector-curvature="0"
   id="path939"
   style="fill:#6f7175;fill-opacity:0.50196078;stroke:none;stroke-width:0.51948315px;stroke-linecap:butt;stroke-linejoin:miter;stroke-opacity:1"
   d="m 5.8296971,53.237984 q 0,-0.810393 1.1844216,-1.433773 1.2155903,-0.654549 1.9324773,-0.654549 0.467535,0 0.716887,0.62338 l 0.903901,2.212998 q 0.31169,0.779225 0.62338,0.779225 0.249351,0 0.779224,-0.93507 2.618196,-4.425997 5.485743,-8.477965 2.867547,-4.083138 4.675348,-5.703926 0.779225,-0.716887 2.18183,-1.090915 1.402604,-0.405196 2.805209,-0.405196 h 0.124676 v 0.498703 q -3.490927,3.70911 -8.072769,10.098754 -4.581841,6.389643 -7.10653,11.064991 -0.249352,0.467535 -0.685718,0.592211 -0.436365,0.155845 -1.589618,0.155845 -0.966239,0 -1.24676,-0.09351 Q 8.260878,60.375677 8.073864,60.001652 7.2011327,58.287361 6.5154149,56.261376 5.8296971,54.204223 5.8296971,53.237984 Z" /></svg>