<?xml version="1.0" encoding="UTF-8"?>
<svg id="svg8" class="feather feather-refresh-cw" width="24" height="24" fill="none" stroke="currentColor" stroke-linecap="round" stroke-linejoin="round" stroke-width="2" version="1.1" viewBox="0 0 24 24" xmlns="http://www.w3.org/2000/svg">
 <g id="g3101" transform="translate(-.91662 -1.3397)">
  <polyline id="polyline2" transform="translate(30.128 1.316)" points="23 4 23 10 17 10"/>
  <polyline id="polyline4" transform="translate(30.128 1.316)" points="1 20 1 14 7 14"/>
  <path id="path6" d="m33.638 10.316a9 9 0 0 1 14.85-3.36l4.64 4.36m-22 4 4.64 4.36a9 9 0 0 0 14.85-3.36"/>
 </g>
 <g id="g3087" stroke="#000" stroke-linejoin="bevel" stroke-width="2.5588">
  <path id="path1261" d="m7.7992 8.2857s-6.3759 2.8046-6.3201 2.3615c0.66511-5.2822 5.1735-9.3678 10.636-9.3678 5.0215 2e-7 9.2367 3.4525 10.401 8.1132"/>
  <path id="path3003" d="m16.201 15.714s6.3759-2.8046 6.3201-2.3615c-0.66511 5.2822-5.1735 9.3678-10.636 9.3678-5.0215 0-9.2367-3.4525-10.401-8.1132"/>
 </g>
</svg>
